<svg xmlns="http://www.w3.org/2000/svg" viewBox="0 0 512 512" role="img" aria-labelledby="title desc">
  <title id="title">Sifa Hidžama logo</title>
  <desc id="desc">Circular gold and black Sifa Hidžama logo with cupping needle symbol and since 2006 text.</desc>
  <defs>
    <linearGradient id="gold" x1="130" x2="390" y1="90" y2="420" gradientUnits="userSpaceOnUse">
      <stop stop-color="#ffe05f"/>
      <stop offset=".55" stop-color="#f5b82f"/>
      <stop offset="1" stop-color="#d99516"/>
    </linearGradient>
    <filter id="softShadow" x="-20%" y="-20%" width="140%" height="140%">
      <feDropShadow dx="0" dy="8" stdDeviation="8" flood-color="#000" flood-opacity=".22"/>
    </filter>
  </defs>
  <circle cx="256" cy="256" r="246" fill="#f4c51f"/>
  <circle cx="256" cy="256" r="224" fill="#070707"/>
  <circle cx="256" cy="256" r="198" fill="#fff"/>
  <circle cx="256" cy="244" r="174" fill="url(#gold)"/>
  <path d="M256 82a174 174 0 0 1 151 87c-32-8-63 4-91 40-28 36-63 46-104 32-42-15-75 0-99 42a174 174 0 0 1 143-201Z" fill="#fff45b" opacity=".45"/>
  <path d="M143 345c36-70 82-91 137-64 42 20 76 7 102-39a174 174 0 0 1-239 103Z" fill="#ef8f13" opacity=".55"/>
  <circle cx="256" cy="160" r="42" fill="#e28b16" opacity=".55"/>
  <circle cx="256" cy="316" r="38" fill="#ffec44" opacity=".6"/>
  <g fill="none" stroke="#fff" stroke-linecap="round" filter="url(#softShadow)">
    <circle cx="256" cy="54" r="22" stroke-width="10"/>
    <path d="M256 78v306" stroke-width="5"/>
    <path d="M240 103h32M240 117h32M240 131h32M240 145h32M240 159h32M240 173h32" stroke-width="6"/>
  </g>
  <text x="256" y="278" text-anchor="middle" font-family="Arial Black, Arial, sans-serif" font-size="94" font-weight="900" fill="#fff" stroke="#111" stroke-width="3" paint-order="stroke" letter-spacing="2">SHIFA</text>
  <text x="256" y="430" text-anchor="middle" font-family="Georgia, serif" font-style="italic" font-size="42" fill="#fff">since 2006</text>
  <path d="M80 256a176 176 0 0 1 30-99M432 256a176 176 0 0 0-30-99" stroke="#f4c51f" stroke-width="9" stroke-linecap="round" fill="none"/>
</svg>
